<?xml version="1.0" standalone="no"?>
<!DOCTYPE svg PUBLIC "-//W3C//DTD SVG 20010904//EN"
 "http://www.w3.org/TR/2001/REC-SVG-20010904/DTD/svg10.dtd">
<svg version="1.0" xmlns="http://www.w3.org/2000/svg"
 width="225.000000pt" height="225.000000pt" viewBox="0 0 225.000000 225.000000"
 preserveAspectRatio="xMidYMid meet">

<g transform="translate(0.000000,225.000000) scale(0.100000,-0.100000)"
fill="#fff" stroke="none">
<path d="M229 1960 c-72 -38 -118 -124 -104 -193 12 -54 51 -111 93 -135 l40
-22 867 0 868 0 41 24 c43 25 79 78 91 133 14 70 -32 156 -106 193 -37 19 -64
20 -896 20 -826 -1 -859 -2 -894 -20z m1782 -98 c46 -51 33 -133 -26 -160 -19
-9 -235 -12 -860 -12 -625 0 -841 3 -860 12 -31 14 -55 56 -55 96 0 33 32 79
64 92 11 5 400 8 864 7 l844 -2 29 -33z"/>
<path d="M235 1296 c-56 -24 -115 -112 -115 -171 0 -60 60 -148 117 -171 48
-20 1728 -20 1776 0 57 23 117 111 117 171 0 60 -60 148 -117 171 -47 20
-1733 20 -1778 0z m1776 -104 c39 -44 39 -90 0 -134 l-29 -33 -857 0 -857 0
-29 33 c-48 53 -30 136 35 162 11 5 400 8 864 7 l844 -2 29 -33z"/>
<path d="M209 611 c-122 -77 -110 -254 22 -321 37 -19 64 -20 894 -20 830 0
857 1 894 20 133 68 143 251 18 325 l-44 25 -869 0 -870 0 -45 -29z m1776 -63
c59 -27 72 -109 26 -160 l-29 -33 -857 0 -857 0 -29 33 c-45 51 -35 127 22
158 33 18 1684 20 1724 2z"/>
</g>
</svg>
