<?xml version="1.0" standalone="no"?>
<!DOCTYPE svg PUBLIC "-//W3C//DTD SVG 20010904//EN"
 "http://www.w3.org/TR/2001/REC-SVG-20010904/DTD/svg10.dtd">
<svg version="1.0" xmlns="http://www.w3.org/2000/svg"
 width="225.000000pt" height="225.000000pt" viewBox="0 0 225.000000 225.000000"
 preserveAspectRatio="xMidYMid meet">

<g transform="translate(0.000000,225.000000) scale(0.100000,-0.100000)"
fill="#fff" stroke="none">
<path d="M456 1489 c-35 -28 -35 -70 0 -98 26 -21 37 -21 459 -21 422 0 433 0
459 21 17 13 26 30 26 49 0 19 -9 36 -26 49 -26 21 -37 21 -459 21 -422 0
-433 0 -459 -21z"/>
<path d="M456 1129 c-35 -28 -35 -70 0 -98 26 -21 34 -21 669 -21 635 0 643 0
669 21 35 28 35 70 0 98 -26 21 -34 21 -669 21 -635 0 -643 0 -669 -21z"/>
<path d="M456 769 c-35 -28 -35 -70 0 -98 26 -21 37 -21 459 -21 422 0 433 0
459 21 17 13 26 30 26 49 0 19 -9 36 -26 49 -26 21 -37 21 -459 21 -422 0
-433 0 -459 -21z"/>
</g>
</svg>
