<?xml version="1.0" standalone="no"?>
<!DOCTYPE svg PUBLIC "-//W3C//DTD SVG 20010904//EN"
 "http://www.w3.org/TR/2001/REC-SVG-20010904/DTD/svg10.dtd">
<svg version="1.0" xmlns="http://www.w3.org/2000/svg"
 width="980.000000pt" height="824.000000pt" viewBox="0 0 980.000000 824.000000"
 preserveAspectRatio="xMidYMid meet">

<g transform="translate(0.000000,824.000000) scale(0.100000,-0.100000)"
fill="#fff" stroke="none">
<path d="M1353 8215 c-71 -19 -156 -65 -225 -119 -63 -50 -155 -160 -186 -221
-11 -22 -226 -614 -477 -1315 l-456 -1275 -6 -140 c-34 -919 722 -1673 1637
-1631 541 24 1019 312 1290 774 l43 73 49 -83 c173 -288 449 -524 758 -651
503 -207 1091 -133 1530 191 158 117 316 290 417 459 l50 83 43 -73 c232 -393
627 -669 1080 -753 129 -24 418 -25 545 -1 325 61 592 197 824 421 241 234
394 520 458 861 13 66 17 141 17 280 l-1 190 -462 1285 c-347 967 -471 1299
-498 1340 -49 74 -176 197 -248 240 -32 19 -88 45 -124 57 l-66 22 -2970 0
c-2521 0 -2978 -2 -3022 -14z m5992 -364 c70 -28 187 -138 226 -211 33 -64
828 -2374 819 -2380 -4 -3 -3 -34 2 -70 12 -81 4 -251 -17 -350 -90 -431 -399
-781 -813 -920 -475 -159 -1025 2 -1332 388 -166 210 -250 422 -271 687 -8 95
-16 142 -31 173 -63 129 -263 116 -312 -21 -8 -23 -17 -89 -20 -147 -25 -486
-367 -927 -838 -1081 -296 -96 -651 -73 -920 62 -244 122 -464 345 -572 580
-69 150 -116 347 -116 489 0 75 -24 136 -64 168 -70 55 -163 53 -226 -4 -47
-43 -56 -71 -65 -193 -44 -663 -567 -1161 -1219 -1161 -469 0 -887 259 -1098
680 -98 193 -147 463 -120 650 5 36 6 67 2 70 -9 6 768 2267 803 2337 51 100
142 199 221 240 83 43 -31 42 3006 40 l2895 -2 60 -24z"/>
<path d="M1346 5945 c-22 -8 -55 -30 -75 -49 -31 -32 -35 -42 -39 -100 -6 -86
19 -128 93 -162 l52 -24 3014 2 3014 3 39 24 c53 33 76 75 76 139 0 74 -23
117 -79 150 l-46 27 -3005 2 c-2556 2 -3011 0 -3044 -12z"/>
<path d="M795 3311 c-40 -24 -61 -49 -80 -94 -22 -54 -23 -2714 0 -2822 31
-148 115 -259 243 -324 129 -65 -61 -61 2695 -61 2757 0 2544 -5 2604 63 74
84 46 212 -57 265 l-44 22 -2417 0 c-2379 0 -2418 0 -2481 20 -81 25 -138 73
-175 148 l-28 57 -5 1325 c-5 1293 -5 1326 -25 1357 -10 18 -33 39 -51 48 -45
21 -142 20 -179 -4z"/>
<path d="M8155 3141 c-48 -22 -69 -44 -90 -94 -13 -31 -15 -122 -15 -662 l0
-625 -625 0 c-666 0 -665 0 -718 -48 -30 -27 -57 -88 -57 -127 0 -69 49 -140
113 -164 19 -7 237 -11 658 -11 l629 0 0 -629 c0 -421 4 -639 11 -658 13 -34
55 -80 91 -99 35 -18 111 -18 146 0 36 19 78 65 91 99 7 19 11 237 11 658 l0
629 632 0 c610 0 633 1 672 20 129 63 124 251 -8 311 -39 17 -79 19 -668 19
l-628 0 0 628 c0 587 -2 630 -19 667 -22 48 -44 69 -94 90 -48 20 -83 19 -132
-4z"/>
</g>
</svg>
